<!-- <svg  viewBox="-1.5 0 34 34" xmlns="http://www.w3.org/2000/svg"><path d="M15.5 0a3.5 3.5 0 0 1 3.48 3.124 7 7 0 1 1 7.021 11.586L26 23h.5a3.5 3.5 0 1 1 0 7h-5.842a6.002 6.002 0 0 1-11.316 0H3.5a3.5 3.5 0 1 1 0-7H4v-9c0-4.664 2.903-8.65 7-10.25V3.5A3.5 3.5 0 0 1 14.308.005L14.5 0zm2.964 30.001h-6.928A4 4 0 0 0 15 32c1.48 0 2.772-.804 3.464-1.999M26.5 25h-23a1.5 1.5 0 0 0 0 3h23a1.5 1.5 0 0 0 0-3M15 5a9 9 0 0 0-8.996 8.735L6 14v9h18v-8a7 7 0 0 1-6.484-9.642 9 9 0 0 0-2.25-.354zm9-2a5 5 0 1 0 0 10 5 5 0 0 0 0-10m-8.5-1h-1a1.5 1.5 0 0 0-1.465 1.175 11.1 11.1 0 0 1 3.928 0A1.5 1.5 0 0 0 15.5 2" fill="#252528"/></svg> -->



<svg  viewBox="0 0 24 24" data-name="Line Color" xmlns="http://www.w3.org/2000/svg" class="icon line-color"><path d="M21 7V4a1 1 0 0 0-1-1h-5a1 1 0 0 0-1 1v3a1 1 0 0 0 1 1h5a1 1 0 0 0 1-1M10 20v-3a1 1 0 0 0-1-1H4a1 1 0 0 0-1 1v3a1 1 0 0 0 1 1h5a1 1 0 0 0 1-1" style="fill:none;stroke:#2ca9bc;stroke-linecap:round;stroke-linejoin:round;stroke-width:2"/><path d="M9 12H4a1 1 0 0 1-1-1V4a1 1 0 0 1 1-1h5a1 1 0 0 1 1 1v7a1 1 0 0 1-1 1m12 8v-7a1 1 0 0 0-1-1h-5a1 1 0 0 0-1 1v7a1 1 0 0 0 1 1h5a1 1 0 0 0 1-1" style="fill:none;stroke:#000;stroke-linecap:round;stroke-linejoin:round;stroke-width:2"/></svg>